<svg width="100" height="100" viewBox="0 0 100 100" fill="none" xmlns="http://www.w3.org/2000/svg">
<circle cx="50" cy="50" r="46" fill="white" stroke="black" stroke-width="8"/>
<path fill-rule="evenodd" clip-rule="evenodd" d="M44.3704 56.5C44.7775 55.4107 45 54.2313 45 53C45 47.4772 40.5228 43 35 43C29.4772 43 25 47.4772 25 53C25 54.2313 25.2225 55.4107 25.6296 56.5C27.0483 52.7033 30.7085 50 35 50C39.2915 50 42.9517 52.7033 44.3704 56.5Z" fill="url(#paint0_linear_85_669)"/>
<circle cx="35" cy="69" r="8" fill="url(#paint1_linear_85_669)"/>
<circle cx="35" cy="31" r="8" fill="url(#paint2_linear_85_669)"/>
<rect x="54" y="23" width="10" height="15" fill="url(#paint3_linear_85_669)"/>
<rect x="54" y="45" width="10" height="10" fill="url(#paint4_linear_85_669)"/>
<rect x="65" y="45" width="10" height="10" fill="url(#paint5_linear_85_669)"/>
<rect x="54" y="62" width="10" height="15" fill="url(#paint6_linear_85_669)"/>
<rect x="65" y="62" width="10" height="15" fill="url(#paint7_linear_85_669)"/>
<rect x="65" y="23" width="10" height="15" fill="url(#paint8_linear_85_669)"/>
<defs>
<linearGradient id="paint0_linear_85_669" x1="35" y1="43" x2="35" y2="56.5" gradientUnits="userSpaceOnUse">
<stop offset="0.0833333" stop-color="#D43A55"/>
<stop offset="0.869792" stop-color="#E5D99A"/>
</linearGradient>
<linearGradient id="paint1_linear_85_669" x1="35" y1="61" x2="35" y2="77" gradientUnits="userSpaceOnUse">
<stop offset="0.0833333" stop-color="#D43A55"/>
<stop offset="0.869792" stop-color="#E5D99A"/>
</linearGradient>
<linearGradient id="paint2_linear_85_669" x1="35" y1="23" x2="35" y2="39" gradientUnits="userSpaceOnUse">
<stop offset="0.0833333" stop-color="#D43A55"/>
<stop offset="0.869792" stop-color="#E5D99A"/>
</linearGradient>
<linearGradient id="paint3_linear_85_669" x1="59" y1="23" x2="59" y2="38" gradientUnits="userSpaceOnUse">
<stop offset="0.0833333" stop-color="#D43A55"/>
<stop offset="0.869792" stop-color="#E5D99A"/>
</linearGradient>
<linearGradient id="paint4_linear_85_669" x1="59" y1="45" x2="59" y2="55" gradientUnits="userSpaceOnUse">
<stop offset="0.0833333" stop-color="#D43A55"/>
<stop offset="0.869792" stop-color="#E5D99A"/>
</linearGradient>
<linearGradient id="paint5_linear_85_669" x1="70" y1="45" x2="70" y2="55" gradientUnits="userSpaceOnUse">
<stop offset="0.0833333" stop-color="#D43A55"/>
<stop offset="0.869792" stop-color="#E5D99A"/>
</linearGradient>
<linearGradient id="paint6_linear_85_669" x1="59" y1="62" x2="59" y2="77" gradientUnits="userSpaceOnUse">
<stop offset="0.0833333" stop-color="#D43A55"/>
<stop offset="0.869792" stop-color="#E5D99A"/>
</linearGradient>
<linearGradient id="paint7_linear_85_669" x1="70" y1="62" x2="70" y2="77" gradientUnits="userSpaceOnUse">
<stop offset="0.0833333" stop-color="#D43A55"/>
<stop offset="0.869792" stop-color="#E5D99A"/>
</linearGradient>
<linearGradient id="paint8_linear_85_669" x1="70" y1="23" x2="70" y2="38" gradientUnits="userSpaceOnUse">
<stop offset="0.0833333" stop-color="#D43A55"/>
<stop offset="0.869792" stop-color="#E5D99A"/>
</linearGradient>
</defs>
</svg>
